<svg width="108" height="108" viewBox="0 0 108 108" fill="none" xmlns="http://www.w3.org/2000/svg">
<g clip-path="url(#clip0)">
<path d="M108 18.5212C108 18.5094 107.998 18.4976 107.998 18.4855C107.996 18.4385 107.994 18.3921 107.988 18.3461C107.986 18.3292 107.983 18.3124 107.98 18.2955C107.974 18.2531 107.966 18.2113 107.957 18.1704C107.953 18.1541 107.949 18.1381 107.944 18.1219C107.932 18.0774 107.918 18.0337 107.902 17.9907C107.899 17.9824 107.897 17.974 107.894 17.966L103.602 6.97997C103.17 5.87297 102.122 5.15747 100.933 5.15747H93.1194C92.2677 5.15747 91.5773 5.84787 91.5773 6.69963C91.5773 7.5514 92.2677 8.24179 93.1194 8.24179H100.784L104.199 16.9849H71.9104L69.8873 8.24179H81.8122C82.6639 8.24179 83.3543 7.5514 83.3543 6.69963C83.3543 5.84787 82.6639 5.15747 81.8122 5.15747H67.9475H52.4084H19.4222C18.2334 5.15747 17.1859 5.87297 16.7533 6.98039L12.4617 17.966C12.4586 17.9742 12.4569 17.9827 12.4537 17.9907C12.4377 18.0335 12.4238 18.0772 12.4115 18.1219C12.4071 18.1381 12.4029 18.1541 12.3991 18.1704C12.3894 18.2115 12.3816 18.2533 12.3753 18.2955C12.3727 18.3124 12.3696 18.3292 12.3675 18.3461C12.3622 18.3921 12.3592 18.4385 12.358 18.4855C12.3578 18.4973 12.3563 18.5092 12.3561 18.5212L12.3559 18.5269V41.1836C12.3559 42.0354 13.0462 42.7258 13.898 42.7258C14.7498 42.7258 15.4402 42.0354 15.4402 41.1836V20.0692H48.1295V43.5103C48.1295 44.427 48.6695 45.2623 49.5055 45.6384C49.8115 45.7762 50.1374 45.8434 50.4612 45.8434C51.0215 45.8434 51.5756 45.6422 52.0101 45.257L60.1778 38.021L68.3455 45.2568C69.0313 45.865 70.0147 46.0145 70.8506 45.6384C71.6863 45.2621 72.2263 44.427 72.2263 43.5103V20.0692H104.915V89.2404C104.915 90.3469 104.015 91.2474 102.908 91.2474H74.6317C74.6317 91.2299 74.6295 91.2124 74.6293 91.1949C74.6276 91.0565 74.6226 90.9184 74.6108 90.7813C77.2658 91.4852 80.1027 90.1206 81.1667 87.5113C81.7263 86.1387 81.7181 84.6305 81.1433 83.2645C81.0891 83.1358 81.0294 83.011 80.9665 82.888C80.9549 82.8654 80.9437 82.8426 80.9321 82.8203C80.8703 82.703 80.8045 82.5885 80.7351 82.4769C80.7216 82.4552 80.7077 82.4341 80.694 82.4125C80.6206 82.298 80.5444 82.1856 80.4632 82.0774C80.4617 82.0753 80.4601 82.0734 80.4586 82.0715C80.378 81.9645 80.2928 81.8616 80.2048 81.761C80.1888 81.7426 80.173 81.724 80.1567 81.7057C80.0696 81.6087 79.9791 81.5148 79.8855 81.4243C79.8671 81.4066 79.8486 81.3895 79.83 81.3722C79.7319 81.28 79.6315 81.1904 79.5269 81.1058C79.5233 81.1031 79.5197 81.1003 79.5161 81.0976C79.4132 81.0147 79.3062 80.9362 79.1972 80.8607C79.1776 80.847 79.1582 80.833 79.1381 80.8195C79.0291 80.7461 78.9173 80.6767 78.8025 80.6107C78.793 80.6052 78.7844 80.5989 78.7747 80.5934C79.4265 80.0294 79.9409 79.3156 80.2759 78.4942C80.8355 77.1216 80.8273 75.6134 80.2525 74.2472C79.7496 73.0518 78.8656 72.0903 77.7333 71.4938C77.5715 71.4086 77.4046 71.3308 77.2331 71.2609L53.2312 61.4741L64.4037 58.016C67.0618 57.1931 68.5588 54.3581 67.7408 51.6967C67.4355 50.7032 66.8304 49.8654 66.0486 49.253C64.8853 48.3416 63.3305 47.93 61.7885 48.2538C61.7812 48.2555 61.774 48.2568 61.7666 48.2587C61.6812 48.2779 53.1163 50.2037 44.1711 51.948C43.7743 52.0254 43.3876 52.1 43.0065 52.1735C42.7015 52.2321 42.4007 52.2899 42.1056 52.346C42.0208 52.3622 41.9358 52.3783 41.8516 52.3943C41.3306 52.4932 40.8258 52.5879 40.3352 52.6791C40.1377 52.7158 39.942 52.7521 39.7494 52.7875C28.5155 54.857 25.3597 54.8941 24.4839 54.7756C24.4805 54.7752 24.4776 54.7747 24.4742 54.7741C24.4609 54.7722 24.4478 54.7703 24.4356 54.7684C24.4267 54.7669 24.4185 54.7654 24.4103 54.7642C24.4044 54.7631 24.398 54.7621 24.3923 54.7612C24.3377 54.7513 24.2951 54.741 24.2622 54.7311L24.0095 54.6281L24.3244 53.8559C24.6341 53.0965 24.6294 52.262 24.3116 51.5063C24.232 51.3173 24.1352 51.1388 24.023 50.9726C23.6863 50.4741 23.2103 50.086 22.6407 49.8538L14.3576 46.4765C13.5985 46.1666 12.7638 46.1714 12.008 46.4893C11.252 46.8072 10.6654 47.4006 10.3557 48.1597L0.22718 73.0003C-0.41196 74.5678 0.343406 76.3629 1.91088 77.0022L10.1942 80.3797C10.5724 80.5339 10.9637 80.6069 11.349 80.6069C12.5605 80.6069 13.7109 79.8851 14.1959 78.696L14.272 78.5094L16.1818 79.2879L16.1852 79.2894C18.0119 80.0342 19.695 81.0969 21.1517 82.4157C21.4167 82.6555 21.674 82.9038 21.9235 83.1601C22.1731 83.4164 22.4144 83.6809 22.6475 83.953C22.7639 84.0891 22.8784 84.2272 22.9905 84.3671C25.1131 87.0139 27.8958 89.0902 31.0373 90.3712L33.1859 91.2472H17.4475C16.3409 91.2472 15.4404 90.3467 15.4404 89.2402V85.338C15.4404 84.4863 14.75 83.7959 13.8982 83.7959C13.0465 83.7959 12.3561 84.4863 12.3561 85.338V89.2402C12.3561 92.0475 14.6399 94.3316 17.4475 94.3316H40.7503L60.6166 102.432C61.3004 102.711 62.0079 102.843 62.7046 102.843C64.894 102.843 66.9734 101.538 67.8498 99.389C68.2093 98.5075 68.3246 97.5861 68.2278 96.7004C69.2612 96.8487 70.3325 96.7126 71.3037 96.2933C72.2907 95.867 73.1087 95.188 73.6896 94.3313H102.909C105.716 94.3313 108 92.0475 108 89.2399V18.5271C108 18.525 108 18.5233 108 18.5212ZM53.6343 8.24179H66.7213L68.7444 16.9849H51.6112L53.6343 8.24179ZM48.4455 16.9849H16.1563L19.5716 8.24179H50.4686L48.4455 16.9849ZM69.1424 41.842L61.7253 35.2713C61.2842 34.8806 60.7311 34.6853 60.1782 34.6853C59.6252 34.6853 59.0719 34.8806 58.6308 35.2713L51.2141 41.842V20.0692H69.1424V41.842ZM11.3453 77.5182L3.08854 74.1516L13.2064 49.338L21.4631 52.7048L11.3453 77.5182ZM72.9568 86.8249L71.1868 86.1031L71.1843 86.102L71.1824 86.1012V86.1012L52.7488 78.5851C51.9603 78.2636 51.0603 78.642 50.7386 79.431C50.4169 80.2196 50.7955 81.1197 51.5845 81.4414L70.0178 88.9575C70.0948 88.9889 70.1693 89.0237 70.2412 89.0619C70.2615 89.0727 70.2802 89.0858 70.3001 89.0969C70.3507 89.1256 70.4015 89.1543 70.4494 89.1862C70.4724 89.2016 70.4935 89.2193 70.5159 89.2353C70.5582 89.2657 70.6015 89.2956 70.6416 89.3285C70.6658 89.3484 70.6878 89.3705 70.7112 89.3912C70.747 89.423 70.7837 89.4538 70.8175 89.4876C70.8409 89.5108 70.8618 89.5363 70.8842 89.5604C70.9152 89.5937 70.947 89.6264 70.9761 89.6614C70.9983 89.6882 71.0177 89.7167 71.0388 89.7443C71.0651 89.7789 71.0926 89.8129 71.1168 89.8487C71.1373 89.8787 71.1548 89.9103 71.1738 89.9409C71.1957 89.9763 71.2189 90.0111 71.2389 90.0476C71.2571 90.0805 71.2723 90.1149 71.2889 90.1485C71.3067 90.1845 71.3258 90.22 71.3419 90.2569C71.3573 90.2923 71.3697 90.329 71.3834 90.3651C71.3974 90.4016 71.4125 90.4374 71.4248 90.4746C71.437 90.5119 71.4463 90.5501 71.4566 90.5878C71.467 90.6252 71.4786 90.6619 71.4872 90.6996C71.4959 90.7378 71.5014 90.7766 71.5083 90.815C71.5153 90.8534 71.5233 90.8914 71.5283 90.9302C71.5334 90.969 71.5353 91.0082 71.5385 91.0473C71.5416 91.0865 71.5463 91.1255 71.5475 91.1647C71.5488 91.2034 71.5469 91.2424 71.5465 91.2812C71.5461 91.3213 71.5467 91.3613 71.5442 91.4016C71.5419 91.4398 71.5362 91.478 71.5319 91.5162C71.5275 91.5573 71.5241 91.5984 71.5174 91.6394C71.5113 91.6769 71.5018 91.7142 71.494 91.7518C71.4851 91.7933 71.4777 91.8349 71.4665 91.8762C71.4568 91.9127 71.4438 91.949 71.4322 91.9853C71.4191 92.0266 71.4071 92.068 71.3917 92.1087C71.3786 92.1368 71.3657 92.165 71.3537 92.1935C71.351 92.2 71.3495 92.2068 71.3469 92.2131C71.1061 92.7693 70.6614 93.2113 70.0807 93.4621C69.4415 93.7378 68.7098 93.7475 68.0728 93.4876L64.8068 92.1559C64.7917 92.1498 64.7763 92.1456 64.7611 92.1399C64.7457 92.133 64.7311 92.1249 64.7155 92.1186L49.7229 86.0054C48.9338 85.684 48.0342 86.0624 47.7127 86.8513C47.391 87.64 47.7697 88.5401 48.5584 88.8617L63.5509 94.9749C63.5669 94.9814 63.5832 94.9861 63.5994 94.992C63.614 94.9983 63.6275 95.0061 63.6425 95.012C64.9007 95.5252 65.5072 96.9664 64.9942 98.2246C64.4809 99.4833 63.0405 100.09 61.7816 99.5763L41.6381 91.3628L41.6356 91.3616L32.2025 87.5151C30.542 86.838 29.0001 85.8983 27.6389 84.7421C26.8221 84.0484 26.0706 83.277 25.3972 82.4374C24.7339 81.6104 24.0061 80.839 23.2231 80.13C21.5004 78.5705 19.5102 77.314 17.3504 76.4331V76.4331L15.4374 75.6533L19.2463 66.3119L22.8458 57.4844L23.1113 57.5926C23.3613 57.6945 23.7178 57.8392 24.6771 57.8755C25.8757 57.9297 27.8585 57.8046 31.4106 57.3028C33.8269 56.9615 36.7908 56.4679 40.2508 55.8313C40.336 55.8157 40.4206 55.8001 40.5067 55.7843C40.6685 55.7543 40.8319 55.7239 40.996 55.6936C41.1237 55.6699 41.2519 55.6459 41.3812 55.6216C41.5284 55.594 41.6763 55.5664 41.8252 55.5383C41.9832 55.5086 42.1431 55.4784 42.3039 55.4478C42.4325 55.4234 42.561 55.3991 42.6909 55.3744C42.8869 55.3371 43.0862 55.2989 43.2862 55.2605C43.3891 55.2407 43.491 55.2213 43.5948 55.2015C43.9011 55.1424 44.2114 55.0825 44.5273 55.0211C53.4418 53.2872 62.0459 51.3573 62.4325 51.2704C62.4711 51.2624 62.5097 51.2578 62.5483 51.2521C63.5389 51.1055 64.5094 51.6784 64.7936 52.6027C64.8933 52.9276 64.9049 53.2589 64.8421 53.5707C64.7039 54.2569 64.2052 54.849 63.4925 55.0694L48.2033 59.8016C47.5809 59.9944 47.1468 60.5569 47.1187 61.2079C47.0904 61.8586 47.4739 62.4571 48.0772 62.703L76.0694 74.117C76.679 74.3655 77.1553 74.8365 77.4105 75.4434C77.6658 76.0503 77.6696 76.7202 77.4209 77.3296C77.1722 77.9392 76.7014 78.4155 76.0945 78.6707C75.7912 78.7981 75.472 78.8627 75.1525 78.8646C75.1478 78.8646 75.1432 78.864 75.1385 78.864C75.0634 78.864 74.9886 78.861 74.9137 78.854C74.8915 78.8519 74.8696 78.8473 74.8474 78.8448C74.7903 78.8378 74.7331 78.8313 74.6764 78.8203C74.6405 78.8133 74.6051 78.8028 74.5694 78.7943C74.5268 78.7842 74.484 78.7756 74.4418 78.7631C74.3982 78.7503 74.3553 78.7332 74.3123 78.7178C74.2781 78.7055 74.2433 78.6954 74.2096 78.6817L55.7745 71.1647C54.9858 70.8431 54.086 71.2217 53.7643 72.0106C53.4426 72.7993 53.8212 73.6994 54.6101 74.021L76.96 83.1342C77.1125 83.1962 77.2566 83.2723 77.3909 83.3609C77.794 83.6267 78.1098 84.0053 78.3011 84.4605C78.5245 84.9915 78.5553 85.5707 78.3929 86.1156C78.3697 86.1934 78.3425 86.2706 78.3115 86.3467C78.2794 86.4254 78.2437 86.5016 78.2047 86.575C78.1138 86.7458 78.0031 86.9002 77.8795 87.0409C77.8027 87.1283 77.7206 87.2097 77.6333 87.2843C77.6194 87.2962 77.6067 87.3097 77.5926 87.3211C77.0298 87.7813 76.2774 87.9792 75.5423 87.8307C75.3931 87.8005 75.2448 87.7577 75.0989 87.6982L72.9568 86.8249Z" fill="#40010C"/>
</g>
<defs>
<clipPath id="clip0">
<rect width="108" height="108" fill="white"/>
</clipPath>
</defs>
</svg>
